<svg width="500" height="500" viewBox="0 0 500 500" fill="none" xmlns="http://www.w3.org/2000/svg">
<g clip-path="url(#clip0_81_2)">
<path d="M500 0H0V500H500V0Z" fill="white"/>
<mask id="mask0_81_2" style="mask-type:luminance" maskUnits="userSpaceOnUse" x="0" y="0" width="500" height="500">
<path d="M500 0H0V500H500V0Z" fill="white"/>
</mask>
<g mask="url(#mask0_81_2)">
<path d="M390.088 227.889L214.511 434.391C209.417 440.385 199.69 435.78 201.079 428.041L225.955 289.684C226.472 286.852 228.38 284.453 231.051 283.308L291.509 257.37C294.806 255.953 297.314 253.175 298.376 249.741L117.214 284.645C110.076 286.034 105.199 277.641 109.885 272.111L285.489 65.6095C290.556 59.6151 300.31 64.2198 298.921 71.9578L274.017 210.316C273.5 213.177 271.592 215.547 268.949 216.692L208.462 242.63C205.165 244.047 202.66 246.853 201.596 250.286L382.758 215.355C389.897 213.994 394.801 222.359 390.088 227.889Z" fill="#2D2D2D"/>
<path fill-rule="evenodd" clip-rule="evenodd" d="M437.851 0H62.122C27.7914 0 0 27.8186 0 62.122V437.878C0 472.182 27.7914 500 62.122 500H437.851C472.18 500 500 472.182 500 437.878V62.122C500 27.8186 472.18 0 437.851 0ZM214.511 434.391L390.088 227.889C394.801 222.359 389.897 213.994 382.758 215.355L201.596 250.286C202.66 246.853 205.165 244.047 208.462 242.63L268.949 216.692C271.592 215.547 273.5 213.177 274.017 210.316L298.921 71.9579C300.31 64.2199 290.556 59.6152 285.489 65.6096L109.885 272.111C105.199 277.641 110.076 286.034 117.214 284.645L298.376 249.741C297.314 253.175 294.806 255.953 291.509 257.37L231.051 283.308C228.38 284.453 226.472 286.852 225.955 289.684L201.079 428.041C199.69 435.78 209.417 440.385 214.511 434.391Z" fill="#B5FF3B"/>
</g>
</g>
<defs>
<clipPath id="clip0_81_2">
<rect width="500" height="500" fill="white"/>
</clipPath>
</defs>
</svg>
