<svg width="3886" height="503" viewBox="0 0 3886 503" fill="none" xmlns="http://www.w3.org/2000/svg">
<g clip-path="url(#clip0_82_2)">
<path d="M500 3H0V503H500V3Z" fill="white"/>
<mask id="mask0_82_2" style="mask-type:luminance" maskUnits="userSpaceOnUse" x="0" y="3" width="500" height="500">
<path d="M500 3H0V503H500V3Z" fill="white"/>
</mask>
<g mask="url(#mask0_82_2)">
<path d="M390.088 230.889L214.511 437.391C209.417 443.385 199.69 438.78 201.079 431.041L225.955 292.684C226.472 289.852 228.38 287.453 231.051 286.308L291.509 260.37C294.806 258.953 297.314 256.175 298.376 252.741L117.214 287.645C110.076 289.034 105.199 280.641 109.885 275.111L285.489 68.6095C290.556 62.6151 300.31 67.2198 298.921 74.9578L274.017 213.316C273.5 216.177 271.592 218.547 268.949 219.692L208.462 245.63C205.165 247.047 202.66 249.853 201.596 253.286L382.758 218.355C389.897 216.994 394.801 225.359 390.088 230.889Z" fill="#2D2D2D"/>
<path fill-rule="evenodd" clip-rule="evenodd" d="M437.851 3H62.122C27.7914 3 0 30.8186 0 65.122V440.878C0 475.182 27.7914 503 62.122 503H437.851C472.18 503 500 475.182 500 440.878V65.122C500 30.8186 472.18 3 437.851 3ZM214.511 437.391L390.088 230.889C394.801 225.359 389.897 216.994 382.758 218.355L201.596 253.286C202.66 249.853 205.165 247.047 208.462 245.63L268.949 219.692C271.592 218.547 273.5 216.177 274.017 213.316L298.921 74.9579C300.31 67.2199 290.556 62.6152 285.489 68.6096L109.885 275.111C105.199 280.641 110.076 289.034 117.214 287.645L298.376 252.741C297.314 256.175 294.806 258.953 291.509 260.37L231.051 286.308C228.38 287.453 226.472 289.852 225.955 292.684L201.079 431.041C199.69 438.78 209.417 443.385 214.511 437.391Z" fill="#B5FF3B"/>
</g>
</g>
<path d="M683 402C660.333 402 643.667 401 633 399C622.333 397 617 394.667 617 392L637 348.5C644.667 349.833 663.667 351.167 694 352.5C724.667 353.5 766.667 354 820 354H829.5C843.833 354 854 351.5 860 346.5C866 341.167 869 332.333 869 320V310C869 298.333 866.5 290 861.5 285C856.833 280 846.167 277.5 829.5 277.5H713.5C679.833 277.5 655.333 271.333 640 259C624.667 246.333 617 225.833 617 197.5V189.5C617 174.833 619.667 161.333 625 149C630.667 136.667 640.167 126.833 653.5 119.5C666.833 111.833 685.167 108 708.5 108H844.5C867.167 108 885.5 109.167 899.5 111.5C913.5 113.833 920.5 116.333 920.5 119L910.5 161C901.833 160 882.167 159 851.5 158C820.833 156.667 779.667 156 728 156L722.5 155.5C707.167 155.5 696.833 158.667 691.5 165C686.167 171 683.333 178.667 683 188V196.5C683 207.5 686 215.833 692 221.5C698.333 226.833 708.667 229.5 723 229.5H834C855.333 229.5 873.5 231.667 888.5 236C903.5 240.333 915 248.333 923 260C931 271.333 935 288.167 935 310.5V318.5C935 343.5 928.5 363.667 915.5 379C902.833 394.333 880.667 402 849 402H683ZM994.93 402V178H1035.93L1055.93 188C1069.93 185.333 1086.76 183 1106.43 181C1126.1 179 1148.6 178 1173.93 178H1198.93C1215.6 178 1228.43 180.333 1237.43 185C1246.43 189.667 1252.76 195.5 1256.43 202.5C1260.43 209.5 1262.76 216.667 1263.43 224C1264.43 231 1264.93 237 1264.93 242V402H1203.93V241C1203.93 227.667 1195.93 221 1179.93 221H1070.93C1064.6 221 1060.43 221.667 1058.43 223C1056.76 224 1055.93 227 1055.93 232V402H994.93ZM1387.07 402C1361.73 402 1343.4 396.167 1332.07 384.5C1320.73 372.5 1315.07 356.167 1315.07 335.5C1315.07 313.833 1320.9 297.167 1332.57 285.5C1344.57 273.833 1362.73 268 1387.07 268H1412.57C1437.57 268 1460.07 268.667 1480.07 270C1500.07 271.333 1516.57 272.667 1529.57 274V241C1529.57 238 1529.23 235 1528.57 232C1527.9 228.667 1525.9 226 1522.57 224C1519.23 222 1513.57 221 1505.57 221H1480.57C1444.23 221 1413.9 221.667 1389.57 223C1365.23 224 1348.73 225 1340.07 226L1334.57 188C1334.57 183.333 1347.23 180.5 1372.57 179.5C1397.9 178.5 1440.23 178 1499.57 178H1524.57C1541.23 178 1554.07 180.333 1563.07 185C1572.07 189.667 1578.4 195.5 1582.07 202.5C1586.07 209.5 1588.4 216.667 1589.07 224C1590.07 231 1590.57 237 1590.57 242V402H1549.57L1530.07 392C1516.07 394.333 1499.23 396.667 1479.57 399C1459.9 401 1437.4 402 1412.07 402H1387.07ZM1400.07 359H1514.57C1521.9 359 1526.23 358.333 1527.57 357C1528.9 355.667 1529.57 351.5 1529.57 344.5V306H1400.07C1391.07 306 1384.73 308.167 1381.07 312.5C1377.73 316.833 1376.07 323.667 1376.07 333C1376.07 342.333 1378.07 349 1382.07 353C1386.07 357 1392.07 359 1400.07 359ZM1648.25 495V178H1689.25L1701.75 184.5C1716.75 182.833 1734.58 181.333 1755.25 180C1776.25 178.667 1800.08 178 1826.75 178H1852.25C1868.92 178 1881.75 180.167 1890.75 184.5C1899.75 188.833 1906.08 194.333 1909.75 201C1913.75 207.667 1916.08 214.667 1916.75 222C1917.75 229.333 1918.25 236 1918.25 242V338C1918.25 343 1917.75 349.167 1916.75 356.5C1916.08 363.5 1913.75 370.5 1909.75 377.5C1906.08 384.5 1899.75 390.333 1890.75 395C1881.75 399.667 1868.92 402 1852.25 402H1826.75C1801.42 402 1778.92 401.333 1759.25 400C1739.58 398.667 1722.92 397.333 1709.25 396V495H1648.25ZM1724.75 359H1833.25C1839.58 359 1845.08 357.333 1849.75 354C1854.75 350.667 1857.25 345.667 1857.25 339V241C1857.58 233.667 1855.75 228.5 1851.75 225.5C1848.08 222.5 1841.92 221 1833.25 221H1808.25C1786.92 221 1767.92 221.5 1751.25 222.5C1734.92 223.167 1720.92 224 1709.25 225V343.5C1709.25 350.833 1709.92 355.333 1711.25 357C1712.92 358.333 1717.42 359 1724.75 359ZM2034.45 402C2017.78 402 2004.95 399.833 1995.95 395.5C1986.95 391.167 1980.45 385.667 1976.45 379C1972.78 372.333 1970.45 365.333 1969.45 358C1968.78 350.667 1968.45 344 1968.45 338V242C1968.45 237 1968.78 231 1969.45 224C1970.45 216.667 1972.78 209.5 1976.45 202.5C1980.45 195.5 1986.95 189.667 1995.95 185C2005.28 180.333 2018.11 178 2034.45 178H2103.95C2145.61 178 2175.11 179.167 2192.45 181.5C2210.11 183.5 2218.95 185.667 2218.95 188L2208.95 226C2199.61 225.333 2187.78 224.667 2173.45 224C2159.11 223 2143.61 222.333 2126.95 222C2110.61 221.333 2094.61 221 2078.95 221H2053.45C2037.45 221 2029.45 227.667 2029.45 241V339C2029.11 352.333 2037.11 359 2053.45 359H2078.95C2096.95 359 2114.45 358.833 2131.45 358.5C2148.78 357.833 2164.61 357.167 2178.95 356.5C2193.28 355.5 2204.78 354.667 2213.45 354L2233.45 386.5C2233.45 396.833 2200.61 402 2134.95 402H2034.45ZM2268.37 402V78H2329.37V188C2343.37 185.333 2360.2 183 2379.87 181C2399.53 179 2422.03 178 2447.37 178H2472.37C2489.03 178 2501.87 180.333 2510.87 185C2519.87 189.667 2526.2 195.5 2529.87 202.5C2533.87 209.5 2536.2 216.667 2536.87 224C2537.87 231 2538.37 237 2538.37 242V402H2477.37V241C2477.37 227.667 2469.37 221 2453.37 221H2344.37C2338.03 221 2333.87 221.667 2331.87 223C2330.2 224 2329.37 227 2329.37 232V402H2268.37ZM2660.5 402C2635.17 402 2616.84 396.167 2605.5 384.5C2594.17 372.5 2588.5 356.167 2588.5 335.5C2588.5 313.833 2594.34 297.167 2606 285.5C2618 273.833 2636.17 268 2660.5 268H2686C2711 268 2733.5 268.667 2753.5 270C2773.5 271.333 2790 272.667 2803 274V241C2803 238 2802.67 235 2802 232C2801.34 228.667 2799.34 226 2796 224C2792.67 222 2787 221 2779 221H2754C2717.67 221 2687.34 221.667 2663 223C2638.67 224 2622.17 225 2613.5 226L2608 188C2608 183.333 2620.67 180.5 2646 179.5C2671.34 178.5 2713.67 178 2773 178H2798C2814.67 178 2827.5 180.333 2836.5 185C2845.5 189.667 2851.84 195.5 2855.5 202.5C2859.5 209.5 2861.84 216.667 2862.5 224C2863.5 231 2864 237 2864 242V402H2823L2803.5 392C2789.5 394.333 2772.67 396.667 2753 399C2733.34 401 2710.84 402 2685.5 402H2660.5ZM2673.5 359H2788C2795.34 359 2799.67 358.333 2801 357C2802.34 355.667 2803 351.5 2803 344.5V306H2673.5C2664.5 306 2658.17 308.167 2654.5 312.5C2651.17 316.833 2649.5 323.667 2649.5 333C2649.5 342.333 2651.5 349 2655.5 353C2659.5 357 2665.5 359 2673.5 359ZM2957.19 146.5C2944.85 146.5 2935.85 144 2930.19 139C2924.52 134 2921.69 125.667 2921.69 114C2921.69 102 2924.35 93.6666 2929.69 89C2935.35 84 2944.52 81.5 2957.19 81.5C2969.85 81.5 2979.02 84 2984.69 89C2990.35 93.6666 2993.19 102 2993.19 114C2993.19 125.333 2990.35 133.667 2984.69 139C2979.02 144 2969.85 146.5 2957.19 146.5ZM2926.69 402V178H2987.69V402H2926.69ZM3053.04 402V178H3094.04L3114.04 188C3128.04 185.333 3144.87 183 3164.54 181C3184.2 179 3206.7 178 3232.04 178H3257.04C3273.7 178 3286.54 180.333 3295.54 185C3304.54 189.667 3310.87 195.5 3314.54 202.5C3318.54 209.5 3320.87 216.667 3321.54 224C3322.54 231 3323.04 237 3323.04 242V402H3262.04V241C3262.04 227.667 3254.04 221 3238.04 221H3129.04C3122.7 221 3118.54 221.667 3116.54 223C3114.87 224 3114.04 227 3114.04 232V402H3053.04Z" fill="black"/>
<defs>
<clipPath id="clip0_82_2">
<rect width="500" height="500" fill="white" transform="translate(0 3)"/>
</clipPath>
</defs>
</svg>
